<?xml version="1.0" encoding="UTF-8"?>
<svg id="Calque_2" data-name="Calque 2" xmlns="http://www.w3.org/2000/svg" viewBox="0 0 151.66 291.22">
  <defs>
    <style>
      .cls-1 {
        fill: #121f40;
        stroke-width: 0px;
      }
    </style>
  </defs>
  <g id="Pictogrammes">
    <path class="cls-1" d="m149.83,183.52c-6.93-39.54-32.15-69.97-61.87-79-.76-.23-1.19-1-.97-1.77,2.24-7.93,3.39-17.17,3.27-27.14-.02-1.46-1.96-1.98-2.7-.72-2.81,4.8-6.24,9.44-9.72,13.96-3.42,4.45-10.58-.55-7.14-5.01,7.63-9.91,16.2-20.65,14.65-32.91-.14-1.11-1.47-1.61-2.33-.9-3.44,2.85-10.73,8.82-17.14,19.3-2.47,4.05-5-3.5-5.01-3.51-3.27-11.12,1.46-18.94,2.76-31.59,1.23-12.02-4.03-24.83-11.73-33.73-.73-.84-2.09-.61-2.49.43-3.56,9.03-8.37,15.09-4.88,25.33,3.42,10.05,3.46,32.53,2.12,32.71-2.04,1.29-4.29-4.16-5.32-7.05-3.4-9.56-9.2-16.49-14.76-24.77-.59-.88-1.13-1.79-1.65-2.74-1.35-2.49-5.16-1.46-5.14,1.37.08,13.73,1.34,28.32,10.11,37.95.65.72,9.57,7.41,13.04,11.29,3.76,4.2-1.53,7.9-6.66,5.64-6.11-2.69-12.07-9.73-15.35-14.03-.87-1.15-2.71-.48-2.62.96.39,6.1,3.44,15.26,21.1,25.06,4.9,2.72,2.17,10.33-3.04,8.18-3.12-1.28-7.13-4.51-10.6-7.4-1.21-1.01-2.94.35-2.24,1.76,2.98,6.01,6.89,12.65,9.94,16.96.45.64.3,1.51-.33,1.98C8.26,132.73-5.11,169.92,1.82,209.46c9.08,51.82,49.58,88.02,90.45,80.86,40.87-7.16,66.65-54.98,57.57-106.8Zm-61.3-44.14c3.61,2.93,8.54,4.99,13.24,3.55,3.46-1.06,5.21-4.64,7.3-7.33,2.76-3.55,7.68,1.43,4.95,4.95-3.68,4.74-6.45,8.76-12.83,9.59-6.67.86-12.53-1.68-17.61-5.81-3.5-2.84,1.48-7.76,4.95-4.95Zm-54.17,3.19c2.56,2.51,6.81,2.78,10.15,1.92,3.5-.9,5.21-3.52,7.05-6.39,2.43-3.78,8.48-.27,6.04,3.53-3.12,4.86-6.48,8.7-12.39,9.86-5.55,1.09-11.68.07-15.81-3.97-3.23-3.16,1.73-8.1,4.95-4.95Zm-3.04,66.94c-6.11.86-12.62.22-17.24-4.23-3.25-3.13,1.7-8.08,4.95-4.95,2.81,2.71,7.18,2.83,10.87,2.36,4.02-.51,6.35-2.49,8.73-5.64,2.69-3.55,8.76-.06,6.04,3.53-3.6,4.76-7.29,8.07-13.35,8.92Zm45.87,28.44c-4.78,4.12-9.17,8.22-15.67,9.16-6.82.98-13.29-1.28-19.24-4.43-3.99-2.11-.45-8.15,3.53-6.04,4.29,2.27,9.1,4.22,14.06,3.69,5.2-.56,8.62-4.08,12.37-7.32,3.4-2.93,8.37,2,4.95,4.95Zm-8.36-51.14c-7.04-.8-13.96-4.25-18.05-10.12-2.58-3.71,3.49-7.2,6.04-3.53,2.57,3.69,7.3,5.79,11.62,6.56,5.45.97,8.56-1.77,11.61-5.96,2.63-3.61,8.7-.11,6.04,3.53-4.39,6.02-9.39,10.42-17.27,9.52Zm53.87,70.7c-5.72,15.23-27.37,12.84-37.12,3.74-3.3-3.08,1.66-8.02,4.95-4.95,3.75,3.5,8.67,5.7,13.87,5.42,3.71-.2,10.07-2.14,11.55-6.06,1.57-4.18,8.34-2.36,6.75,1.86Zm8.01-60.31c-6.98,12.61-23.61,17.2-35.17,8.08-3.54-2.79,1.45-7.71,4.95-4.95,8.09,6.38,19.62,1.59,24.18-6.66,2.18-3.95,8.23-.41,6.04,3.53Z"/>
  </g>
</svg>