<?xml version="1.0" encoding="UTF-8"?>
<svg id="Calque_2" data-name="Calque 2" xmlns="http://www.w3.org/2000/svg" viewBox="0 0 99.74 110.29">
  <defs>
    <style>
      .cls-1 {
        fill: #121f40;
        stroke-width: 0px;
      }
    </style>
  </defs>
  <g id="Pictogrammes">
    <path class="cls-1" d="m80.72,5.04c-.68-.37-1.53.01-1.67.78s-.26,1.74-.36,2.85c-4.07-3.78-9.09-6.75-14.72-8.63-.59-.2-1.08.49-.7.97,3.8,4.79,8.14,9.13,11.97,14.07,5.63,7.25,10.38,15.96,11.19,25.21.4,4.49-6.61,4.45-7,0-1.29-14.65-13.27-24.41-22.06-35.56-.4-.51-1.22-.13-1.1.5,1.72,8.85,4,17.62,5.08,26.55,1.07,8.82,1.69,21.07-3.78,28.64-2.62,3.62-8.69.12-6.04-3.53,5.38-7.43,3.68-20.98,2.11-29.4-1.27-6.8-2.83-13.61-4.13-20.45-.11-.58-.87-.7-1.15-.18-1.94,3.62-4.23,7.13-5.69,10.72-1.85,4.53-2.75,9.07-2.61,13.96.11,4.09,1.26,8.08.82,12.17-.48,4.44-7.48,4.47-7,0,.44-4.09-.7-8.09-.82-12.17-.12-4.15.34-8.21,1.55-12.19,1.18-3.88,2.93-7.56,4.79-11.16.5-.97,1.11-1.98,1.73-3.01.35-.58-.35-1.23-.9-.83-3.78,2.76-7.33,5.81-10.4,9.57-6.66,8.16-10.49,18.04-12.39,28.33-.82,4.43-7.56,2.54-6.75-1.86,2.02-10.93,6.24-21.32,13.13-30.09,1.81-2.3,3.74-4.35,5.77-6.25.54-.5-.07-1.36-.71-1.01-4.46,2.43-8.33,5.61-11.38,9.36-.35-1.41-.82-2.43-1.1-3.72-.18-.82-1.19-1.14-1.83-.6C5.87,15.47,0,29.17,0,44.87c0,23.51,13.15,42.56,29.38,42.56,3.42,0,6.71-.86,9.77-2.42v20.81c0,1.13.69,2.16,1.74,2.57.29.11.58.22.88.32,3.27,1.09,9.85,2.43,13.17.87,1.81-.86,2.89-2.38,4.21-3.52.89-.76,1.45-1.84,1.45-3.01v-18.03c3.06,1.56,6.34,2.42,9.77,2.42,16.23,0,29.38-19.05,29.38-42.56,0-18.22-7.9-33.76-19.02-39.83Z"/>
  </g>
</svg>