<?xml version="1.0" encoding="UTF-8"?>
<svg id="Calque_2" data-name="Calque 2" xmlns="http://www.w3.org/2000/svg" viewBox="0 0 49.22 28.7">
  <defs>
    <style>
      .cls-1 {
        fill: #fcf9f9;
        stroke-width: 0px;
      }
    </style>
  </defs>
  <g id="Pictogrammes">
    <g id="menu_burger" data-name="menu burger">
      <g>
        <path class="cls-1" d="m47.92,2.73H1.3c-.72,0-1.3-.61-1.3-1.37S.58,0,1.3,0h46.63c.72,0,1.3.61,1.3,1.37s-.58,1.37-1.3,1.37Z"/>
        <path class="cls-1" d="m47.92,28.7H1.3c-.72,0-1.3-.61-1.3-1.37s.58-1.37,1.3-1.37h46.63c.72,0,1.3.61,1.3,1.37s-.58,1.37-1.3,1.37Z"/>
        <path class="cls-1" d="m47.92,15.72H1.3c-.72,0-1.3-.61-1.3-1.37s.58-1.37,1.3-1.37h46.63c.72,0,1.3.61,1.3,1.37s-.58,1.37-1.3,1.37Z"/>
      </g>
    </g>
  </g>
</svg>