<?xml version="1.0" encoding="UTF-8"?>
<svg id="Calque_2" data-name="Calque 2" xmlns="http://www.w3.org/2000/svg" viewBox="0 0 161.47 136.73">
  <defs>
    <style>
      .cls-1 {
        fill: #121f40;
        stroke-width: 0px;
      }
    </style>
  </defs>
  <g id="Pictogrammes">
    <g>
      <path class="cls-1" d="m150.23,17.15c-.37-.97-1.74-.88-2.02.12-2.72,9.85-10.89,18.41-16.45,26.58-4.44,6.51-9.87,12.29-14.18,18.85-4.81,7.32-8.14,15.45-11.16,23.63-1.55,4.2-8.31,2.37-6.75-1.86,1.47-3.98,3.01-7.96,4.73-11.85.58-1.3-.19-2.81-1.59-3.08-3.46-.65-6.56-.79-10.32,1.21-3.71,1.96-4.72,4.81-4.89,8.63.87,2.24-.98,5.57-4.16,4.92-6.11-1.26-11.11-4.17-17.58-4.23-6.87-.06-13.58.59-20.46-.1-3.28-.33-6.56-.75-9.79-1.4-.34-.05-.67-.09-1.01-.15-6.65-1.08-12.79-3.5-18.51-6.83-1.68-.69-3.37-1.36-5.09-1.94-.44-.15-.8-.37-1.12-.62-3.17-1.1-5.87-2.04-7.85-2.73-1.33-.46-2.51.95-1.83,2.18,2.73,4.95,8.27,14.49,15.19,23.92l1.14.78c5.37,1.44,10.75,2.87,16.24,3.82,10.45,1.81,20.76,1.51,31.23.08,10.34-1.42,20.61-2.8,31-3.89,4.99-.53,9.8-.58,14.81-.43,4.71.14,9.23-.04,13.74,1.49,4.25,1.44,2.42,8.2-1.86,6.75-5.09-1.72-11-1.36-16.34-1.46-5.05-.09-10.04.67-15.06,1.13-10.2.94-20.26,2.77-30.43,3.93-10.02,1.14-19.87.79-29.79-1.01-6.47-1.18-12.78-2.98-19.13-4.66-.47.57-.52,1.46.11,2.07,8.15,8.01,32.61,30.77,51.09,34.33,9.57,1.85,17.39,1.7,23.38.31,3.45-.8,6.95-1.4,10.46-1.84,4.14-.52,8.32-1.4,12.48-2.66,20.67-6.27,36.47-20.44,44.37-37.47.35-.76.75-1.51,1.18-2.23,2.81-4.8,5.21-11.14,6.79-19.11,3.19-16.08-5.4-41.84-10.54-55.2Z"/>
      <path class="cls-1" d="m126.38.05c-3.69-.68-2.08,5.57-1.39,7.55,2.88,8.52-.42,18.07-4.96,26.2-3.13,5.86-6.5,11.81-10.5,16.9-1.64,2.15-3.34,4.43-3.83,7.15-.84,3.26,1.06,8.52,4.16,4.15,7.46-10.77,16.03-20.79,23.54-31.55,2.48-3.65,5.72-7.28,6.79-11.63.13-1.28-.51-2.6-1.28-3.69-4.1-5.63-8.11-10.46-10.88-13.7-.44-.51-.94-1.04-1.53-1.31l-.12-.05Z"/>
      <path class="cls-1" d="m90.84,60.41c-.19-.33-.72-.57-.99-.6-1.92-.24-3.9.07-5.85.23-1.71.17-3.6.31-4.98-.54-1.07-.63-2.04-1.76-3.39-1.26-3.68,1.85-7.35,4.93-8.97,8.95-.5,1.71-2.69,5.03-.26,5.95,3.78.79,7.2,1.31,10.9,2.68,1.39.51,3.3,1.23,4.03-.57.77-2.65,2.08-4.46,4.04-6.36,1.29-1.56,2.5-3.28,4.01-4.55,1.12-.83,2.25-2.6,1.51-3.85l-.06-.1Z"/>
      <path class="cls-1" d="m60.95,64.03c-.52-2.8-3.45-3.84-5.33-5.6-1.01-.89-1.72-1.67-2.61-1.51-1.79.36-3.76,1.9-5.26,3.03-3.56,2.97-7.24,4.58-9.58,8.72-.93,1.43-.62,2.43,1.18,2.58,5.33.65,10.81.74,16.26.88.75.01,1.59-.06,2.22-.39,1.42-.68,1.88-2.71,2.5-4.36.34-1.02.81-2.1.64-3.18l-.03-.16Z"/>
      <path class="cls-1" d="m66.11,55.85c.91-3.54-.17-7.53-2.54-10.3-1.28-1.53-3.19-2.57-3.84-4.72-.3-.86-.34-1.87-.7-2.67-.62-1.25-2.35-.87-3.54-.86-4.41.48-9.13,1.2-10.86,5.64-.72,1.75-1.54,3.9-.29,5.57.9,1.11,2.05,2.39,3.49,2.74,1.94.3,4.46-1.36,6.63-.82,3.05.51,5.15,3.2,7.55,4.92,1.6,1.06,3.35,3.71,4.05.68l.04-.18Z"/>
      <path class="cls-1" d="m97.42,41.06c-.62,2.94-1.24,5.9-2.94,8.54-1.05,1.82-2.83,3.34-1.49,4.81.83.84,1.93,1.47,2.68,2.42.86.97,1.86,2.19,2.65,2.14.92-.04,1.18-1.29,1.41-2.12,1.69-7.54,6.7-14.1,10.69-20.75.88-1.58-.12-3.24-1.62-3.97-6.17-3.32-10.33,3.47-11.34,8.73l-.05.2Z"/>
      <path class="cls-1" d="m87.93,30.95c-3.74-1.14-6.25,1.71-8.31,4.37-2.43,2.94-5.3,5.75-7.2,8.98-1.07,1.76-.78,3.74-.38,5.77.16.72.3,1.26.83,1.62,1.03.69,3.73-.55,5.44-.29,2.32-.2,4.32,2.63,6.43,2.1,1.44-.64,1.57-2.29,2.36-3.68.93-1.8,2.18-3.56,2.96-5.44,1.29-3.51,1.88-7.31,2.67-10.93-.11-1.82-2.82-1.85-4.6-2.46l-.2-.04Z"/>
      <path class="cls-1" d="m90.47,13.11c-.58-.85-2.18-.77-3.23-.72-6.41.39-10.47,5.82-15.61,8.93-4.67,2.6-12.41,3.39-14.58,8.85.12,1.28,2.37,1.08,4.11,1.97,1.41.63,2.75,1.61,3.45,3,.78,1.59,1.09,5.4,3.33,3.78,3.87-3.82,6.71-9.03,10.95-12.59,2.07-1.69,4.73-2.75,7.43-2.6,1.19-.15,4.09,1.28,3.82-.65-.64-2.51-.84-5.33.14-7.76.21-.66.53-1.48.25-2.11l-.06-.1Z"/>
      <path class="cls-1" d="m35.15,35.59c-3,2.79-9.07,4.33-8.87,9.35.68,2.25,4.14-.26,5.77-.5,1.14-.37,2.39-.46,3.57-.55,2.97-.16,2.83-3.85,4.2-5.78,1.31-2.4,3.55-4.11,6.07-5.18.97-.44,1.93-.94,2.7-1.67,1.27-1.43,2.73-3.23,3.24-5.1-.01-1.38-2.38-1.01-4.08-.48-4.96,1.68-8.97,6.38-12.47,9.78l-.14.13Z"/>
      <path class="cls-1" d="m118.79,9.97c-2.69-2.83-8.08-3.48-11.27-1.02-1.54,1.29-2.91,2.79-4.74,3.68-2.71,1.55-6.42,2.59-6.65,5.78-.08,2.31,1.47,7.49,4.49,6.61,11.38-4.03,13.14,7.23,16.1-1.97,1.47-4.16,4.47-8.6,2.16-12.95l-.1-.14Z"/>
      <path class="cls-1" d="m38.6,52c-1.85-1.32-3.69-1.56-5.9-.57-2.73,1.25-5.3,1.36-8.07,1.24-4.26.85-5.2,6.51-7.93,9.13-.45.56-1.07,1.13-1.05,1.84.26,1.07,1.57,1.29,2.44,1.75,2.18.93,4.38,1.71,6.68,2.62,1.97.82,3.8,1.62,5.37.72,2.27-1.17,2.98-3.99,4.31-6,1.43-2.34,3.84-4.04,6.17-5.57,3.04-1.81.25-3.55-1.84-5.05l-.17-.11Z"/>
    </g>
  </g>
</svg>