<?xml version="1.0" encoding="UTF-8"?>
<svg id="Calque_2" data-name="Calque 2" xmlns="http://www.w3.org/2000/svg" viewBox="0 0 301.67 259.19">
  <defs>
    <style>
      .cls-1 {
        fill: #121f40;
        stroke-width: 0px;
      }
    </style>
  </defs>
  <g id="Pictogrammes">
    <path class="cls-1" d="m225.99,45.92c-5.23,0-10.33.77-15.25,2.2l-4.32,1.4c-.34.11-.83.22-1.33.31-1.31.24-2.12,1.58-1.72,2.85,6.37,20.23,12.68,40.46,15.48,61.58,1.91,14.43,2.1,29.16.64,43.64-.62,6.2-5.03,31.88-6.91,38.15-1.29,4.33-7.96,4.39-7,0,2.85-13.05,5.62-25.3,6.91-38.15,1.42-14.16,1.29-28.58-.52-42.71-2.85-22.17-9.85-43.43-16.59-64.68-.26-.81-.91-1.43-1.73-1.65-3.4-.92-12.4-2.86-17.45-2.86-7.6,0-14.93,1.59-21.85,4.53-.16-.44-.31-.89-.46-1.33-.71-3.05-1.42-6.07-2.13-9.12-.2-1.52-.35-3.05-.42-4.58.66-.05,1.31-.11,1.96-.19,5.46-.63,11.49-1.39,16.01-4.78,4.75-3.56,6.84-9.36,4.55-14.98-1.89-4.63-5.17-9.85-9.69-12.26-5.45-2.9-11.17-.69-14.66,4.01-3.14,4.24-4.73,10-5.69,15.11-.27,1.41-.47,2.83-.63,4.25-.34-.07-.68-.14-1.01-.23-9.08-2.47-13.43-13.68-14.27-22.18-.23-2.28-1.79-4.25-4.25-4.25-2.12,0-4.48,1.95-4.25,4.25,1.14,11.52,6.53,24.87,18,29.51,1.76.71,3.59,1.18,5.46,1.48.19,5.72,1.24,11.38,3.09,16.82-7.93-3.97-16.45-6.15-25.35-6.15-4.2,0-8.33.5-12.34,1.44-1.56.36-2.95,1.23-3.94,2.48-3.12,3.95-6.72,7.58-9.93,11.49-6.99,8.53-12.87,18.56-17.92,28.33-11.04,21.36-14.96,44.27-15.04,68.16-.02,4.51-7.02,4.5-7,0,.08-23.11,3.48-45.94,13.62-66.9,5.13-10.59,11.28-20.64,18.1-30.22,2.43-3.42,5.48-6.57,8.41-9.82.65-.72.29-1.87-.65-2.09-2.34-.54-5.48-1.27-5.41-1.35-4.16-1-8.43-1.54-12.79-1.54C33.88,45.92,0,93.64,0,152.5s33.88,106.59,75.68,106.59c6.37,0,12.29-2.1,18.45-3.21.13-.02.86-.08,1.36-.08.12,0,.2-.11.17-.23-4.94-18.39-9.04-36.66-8.99-56.06.07-26.02,2.26-51.97,8.49-77.29,1.08-4.38,7.83-2.51,6.75,1.86-6.08,24.73-8.17,50.01-8.24,75.43-.05,19.59,4.17,37.98,9.24,56.54.08.3.34.51.64.55,2.2.29,12.58,2.48,17.03,2.48,7.4,0,14.54-1.53,21.3-4.33.48-.2.97-.35,1.48-.45.39-.08.83-.16,1.43-.22,1-.1,1.85-.8,2.12-1.77,7.05-25.2,14.18-50.56,16.61-76.72,2.6-27.98,1.21-56.08.23-84.11-.16-4.51,6.84-4.49,7,0,1,28.66,2.44,57.43-.42,86.03-2.59,25.89-9.5,51.12-16.47,76.07-.15.54.18,1.09.72,1.24.63.17,1.01.31,1.01.31,6.55,2.62,13.46,4.04,20.61,4.04,6.43,0,25.63-1.52,34.27-1.69,1.16-.02,2.27-.52,3.04-1.39,24.76-28.07,35.55-66.15,35.69-103.66.02-4.51,7.02-4.5,7,0-.14,37.15-10.43,75.18-33.76,104-.82,1.01-.17,2.54,1.13,2.6.81.04,1.61.06,2.43.06,16.62,0,31.98-7.55,44.47-20.34,18.91-19.38,31.21-50.79,31.21-86.25,0-58.87-33.88-106.59-75.68-106.59Zm-72.52-27.12c.76-2.43,1.96-7.1,4.65-8.18,2.59-1.04,4.96,2.93,6.05,4.71,1.7,2.78,3.42,5.57.45,8.12-2.76,2.37-7.17,2.8-10.64,3.28-.76.11-1.53.19-2.31.27.36-2.78.96-5.52,1.8-8.2Z"/>
  </g>
</svg>