<?xml version="1.0" encoding="UTF-8"?>
<svg id="Calque_2" data-name="Calque 2" xmlns="http://www.w3.org/2000/svg" viewBox="0 0 156.6 157.6">
  <defs>
    <style>
      .cls-1 {
        fill: #121f40;
        stroke-width: 0px;
      }
    </style>
  </defs>
  <g id="Pictogrammes">
    <path class="cls-1" d="m133.68,27.59C118.9,11.61,99.25,1.9,78.35.25c-20.93-1.65-40.61,4.98-55.42,18.67C8.13,32.6-.01,51.71,0,72.71c.01,20.97,8.16,41.32,22.95,57.3s34.44,25.7,55.34,27.35c2.11.17,4.2.25,6.27.25,18.57,0,35.83-6.6,49.14-18.91,30.53-28.24,30.52-78.07-.02-111.1Zm-95.03,15.31c3.39-2.01,8.3-2.06,11.06,2.59,2.76,4.65.36,8.93-3.02,10.94-3.39,2.01-8.3,2.06-11.06-2.59-2.76-4.65-.36-8.93,3.02-10.94Zm10.44-18.88c1.53-2.72,4.65-4.57,7.77-4.6.03,0,.06,0,.09,0,2.69,0,4.99,1.38,6.48,3.9,1.51,2.55,1.6,5.26.27,7.64-1.53,2.72-4.65,4.57-7.77,4.6-2.73.02-5.07-1.35-6.57-3.9-1.51-2.55-1.6-5.26-.27-7.63Zm15.44,28.11c1.53-2.72,4.65-4.57,7.77-4.6.03,0,.06,0,.09,0,2.69,0,4.99,1.38,6.48,3.89,1.51,2.55,1.6,5.26.27,7.64-1.53,2.72-4.65,4.57-7.77,4.6-.03,0-.06,0-.09,0-2.69,0-4.99-1.38-6.48-3.9-1.51-2.54-1.6-5.26-.27-7.63Z"/>
  </g>
</svg>