<?xml version="1.0" encoding="UTF-8"?>
<svg id="Calque_2" data-name="Calque 2" xmlns="http://www.w3.org/2000/svg" viewBox="0 0 100 100">
  <defs>
    <style>
      .cls-1 {
        opacity: 0;
      }

      .cls-1, .cls-2 {
        fill: #fcf9f9;
        stroke-width: 0px;
      }
    </style>
  </defs>
  <g id="Pictogrammes">
    <g id="se_déconnecter" data-name="se déconnecter">
      <circle class="cls-1" cx="50" cy="50" r="50"/>
      <g>
        <path class="cls-2" d="m75.8,52.43l-9.7,9.45c-.58.58-.58,1.53,0,2.11s1.53.58,2.11,0l12.22-11.97c.58-.58.58-1.53,0-2.11l-12.14-12.51c-.58-.58-1.53-.58-2.11,0s-.58,1.53,0,2.11l9.55,9.93-41.37.07c-.41,0-.78.17-1.05.44s-.44.65-.44,1.06c0,.82.68,1.49,1.5,1.48l41.43-.07Z"/>
        <path class="cls-2" d="m40.57,77.87c7.42,0,13.43-5.65,13.43-12.61v-8.4c0-.88-.71-1.59-1.59-1.59h0c-.88,0-1.59.71-1.59,1.59v8.4c0,5.31-4.6,9.63-10.25,9.63s-10.25-4.32-10.25-9.63v-28.51c0-5.31,4.6-9.63,10.25-9.63,5.65,0,10.25,4.32,10.25,9.63l.15,8.54c.01.82.68,1.47,1.49,1.47.01,0,.03,0,.04,0,.83,0,1.49-.67,1.49-1.49v-8.51c0-6.97-6.01-12.61-13.43-12.61s-13.43,5.65-13.43,12.61v28.51c0,6.97,6.01,12.61,13.43,12.61Z"/>
      </g>
    </g>
  </g>
</svg>