<?xml version="1.0" encoding="UTF-8"?>
<svg id="Calque_2" data-name="Calque 2" xmlns="http://www.w3.org/2000/svg" viewBox="0 0 51.12 48.8">
  <defs>
    <style>
      .cls-1 {
        fill: #121f40;
        stroke-width: 0px;
      }
    </style>
  </defs>
  <g id="Pictogrammes">
    <g id="conseils">
      <path class="cls-1" d="m50.66,20.12l-10.92,10.59c-.36.34-.52.84-.44,1.33l2.53,15c.21,1.23-1.09,2.16-2.19,1.58l-13.45-7.11c-.44-.23-.96-.23-1.4,0l-13.48,7.04c-1.11.58-2.39-.36-2.18-1.59l2.61-14.99c.08-.49-.08-.99-.43-1.33L.45,19.99c-.89-.87-.39-2.39.84-2.57l15.06-2.15c.49-.07.92-.38,1.14-.82L24.26.84c.55-1.12,2.15-1.11,2.7,0l6.7,13.66c.22.44.64.75,1.13.83l15.05,2.23c1.23.18,1.72,1.7.83,2.57Z"/>
    </g>
  </g>
</svg>