<?xml version="1.0" encoding="UTF-8"?>
<svg id="Calque_2" data-name="Calque 2" xmlns="http://www.w3.org/2000/svg" viewBox="0 0 47.57 47.57">
  <defs>
    <style>
      .cls-1 {
        fill: #fcf9f9;
        stroke-width: 0px;
      }
    </style>
  </defs>
  <g id="Pictogrammes">
    <g id="facebook">
      <path class="cls-1" d="m36.94,0H10.63C4.76,0,0,4.76,0,10.63v26.31c0,5.87,4.76,10.63,10.63,10.63h26.31c5.87,0,10.63-4.76,10.63-10.63V10.63c0-5.87-4.76-10.63-10.63-10.63Zm-1.16,17.08c-.12,0-.24,0-.36,0-.73,0-1.46,0-2.19.04-.55.03-1.07.19-1.35.72-.1.19-.19.41-.2.62-.02,1.05,0,2.11,0,3.2h3.99c-.18,1.38-.35,2.72-.53,4.08h-3.5v10.23h-4.24v-10.21h-3.48v-4.08h3.49c0-.14,0-.24,0-.34,0-1.07-.02-2.15.03-3.22.07-1.45.56-2.73,1.7-3.7.78-.66,1.71-1,2.72-1.09,1.3-.12,2.6,0,3.91.11v3.65Z"/>
    </g>
  </g>
</svg>