<?xml version="1.0" encoding="UTF-8"?>
<svg id="Calque_2" data-name="Calque 2" xmlns="http://www.w3.org/2000/svg" viewBox="0 0 49.21 58.48">
  <defs>
    <style>
      .cls-1 {
        fill: #121f40;
        stroke-width: 0px;
      }
    </style>
  </defs>
  <g id="Pictogrammes">
    <path class="cls-1" d="m49.21,31.09c0-3.37-1.85-6.3-4.6-7.85.56-1.17.88-2.48.88-3.86,0-4.98-4.03-9.01-9.01-9.01-1.7,0-3.28.48-4.63,1.29,1.84-3.66,4.09-8.17,4.98-9.95.14-.28-.14-.58-.43-.47-2.29.9-8.73,3.67-11.33,6.96C22.28,5.21,18.85,1.56,17.48.11c-.21-.23-.59-.07-.59.24.05,2.07.31,7.4,1.7,11.15-.03.03-.06.06-.1.09-1.5-1.11-3.34-1.77-5.34-1.77-4.98,0-9.01,4.03-9.01,9.01,0,1.49.37,2.89,1,4.12-3.04,1.45-5.15,4.54-5.15,8.13,0,3.27,1.74,6.12,4.34,7.7-.54,1.15-.84,2.43-.84,3.79,0,4.37,3.11,8.02,7.25,8.84,1.02,3.86,4.52,6.71,8.7,6.71,1.59,0,3.08-.42,4.38-1.14,1.42.94,3.12,1.49,4.96,1.49,4.44,0,8.12-3.22,8.87-7.44.05,0,.1,0,.14,0,4.98,0,9.01-4.03,9.01-9.01,0-1.42-.34-2.75-.92-3.95,2.03-1.65,3.32-4.17,3.32-6.99ZM12.82,22.72c.91.09,1.82.2,2.73.23.37.02.73.03,1.1.01.06,0,.44-.03.38-.01.99-.16,1.35-.53,2.03-1.64,2.34-3.85,8.39-.32,6.04,3.53-1.32,2.16-3.09,3.96-5.57,4.7-2.18.65-4.49.4-6.71.17-1.89-.19-3.5-1.45-3.5-3.5,0-1.75,1.62-3.69,3.5-3.5Zm14.23,21.4c-2.04,2.71-4.46,4.7-7.94,5.1-3.14.35-6.14-.77-8.8-2.35-3.88-2.3-.35-8.34,3.53-6.04,2.44,1.44,5.17,2.4,7.16-.24,1.13-1.5,3.01-2.32,4.79-1.26,1.49.89,2.4,3.27,1.26,4.79Zm15.98-7.2c-5.69,1.34-10.9-.17-14.61-4.78-1.18-1.47-1.47-3.51,0-4.95,1.25-1.22,3.76-1.49,4.95,0,2.14,2.66,4.39,3.79,7.8,2.98,4.39-1.04,6.24,5.72,1.86,6.75Z"/>
  </g>
</svg>