<?xml version="1.0" encoding="UTF-8"?>
<svg id="Calque_2" data-name="Calque 2" xmlns="http://www.w3.org/2000/svg" viewBox="0 0 47.57 47.57">
  <defs>
    <style>
      .cls-1 {
        fill: #fcf9f9;
        stroke-width: 0px;
      }
    </style>
  </defs>
  <g id="Pictogrammes">
    <g id="instagram">
      <g>
        <path class="cls-1" d="m36.94,0H10.63C4.76,0,0,4.76,0,10.63v26.31c0,5.87,4.76,10.63,10.63,10.63h26.31c5.87,0,10.63-4.76,10.63-10.63V10.63c0-5.87-4.76-10.63-10.63-10.63Zm1.78,33.41c0,2.94-2.38,5.32-5.32,5.32H14.43c-2.94,0-5.32-2.38-5.32-5.32V14.43c0-2.94,2.38-5.32,5.32-5.32h18.98c2.94,0,5.32,2.38,5.32,5.32v18.98Z"/>
        <path class="cls-1" d="m23.79,18.78c-2.83,0-5.14,2.3-5.14,5.14s2.3,5.14,5.14,5.14,5.13-2.3,5.13-5.14-2.3-5.14-5.13-5.14Z"/>
        <path class="cls-1" d="m33.41,11.77H14.43c-1.47,0-2.66,1.19-2.66,2.66v18.98c0,1.47,1.19,2.66,2.66,2.66h18.98c1.47,0,2.66-1.19,2.66-2.66V14.43c0-1.47-1.19-2.66-2.66-2.66Zm-9.62,19.94c-4.3,0-7.79-3.49-7.79-7.79s3.49-7.79,7.79-7.79,7.79,3.49,7.79,7.79-3.49,7.79-7.79,7.79Zm7.79-14.54c-.65,0-1.18-.53-1.18-1.18s.53-1.18,1.18-1.18,1.18.53,1.18,1.18-.53,1.18-1.18,1.18Z"/>
      </g>
    </g>
  </g>
</svg>