<?xml version="1.0" encoding="UTF-8"?>
<svg id="Calque_2" data-name="Calque 2" xmlns="http://www.w3.org/2000/svg" viewBox="0 0 114.26 90.18">
  <defs>
    <style>
      .cls-1 {
        fill: #121f40;
        stroke-width: 0px;
      }
    </style>
  </defs>
  <g id="Pictogrammes">
    <g>
      <path class="cls-1" d="m63.96,40.44c-2.3-14.13-10.79-29.08-25.03-33.89-1.04-.35-2.1-.62-3.17-.84.16-1.14.15-2.26.23-3.45.08-1.31-1.78-2.1-2.65-1.1-1.02,1.17-2.05,2.34-3.06,3.52-.19-1.2-.57-2.34-.9-3.58-.43-1.62-2.45-1.32-3,0l-1.05,2.51c-.57-.45-1.14-.91-1.71-1.36-1.16-.92-3.01-.11-2.6,1.51.28,1.08.49,2.09.81,3.09C8.47,12.01,1.51,26.72.24,40.32c-1.43,15.19,3.61,32.35,15.65,42.35,5.07,4.21,11.32,6.98,17.98,7,6.6.02,12.84-2.67,17.73-7.04,11.53-10.29,14.75-27.5,12.36-42.19Z"/>
      <path class="cls-1" d="m89.6,39.28c-13.62,0-24.67,11.39-24.67,25.45s11.04,25.45,24.67,25.45,24.67-11.4,24.67-25.45-11.04-25.45-24.67-25.45Zm-10.27,15.87c.74-.48,1.86-.58,2.7-.35.89.25,1.59.85,2.09,1.61.49.75.91,1.55,1.34,2.34.96,1.71.36,3.75-1.26,4.79-1.57,1.01-3.89.34-4.79-1.26-.44-.79-.85-1.59-1.34-2.34-1.07-1.64-.27-3.8,1.26-4.79Zm4.43,17.65c-1,.61-1.93,1.32-2.99,1.84-1.76.87-3.7.43-4.79-1.26-.97-1.51-.39-3.98,1.26-4.79,1.05-.52,1.99-1.23,2.99-1.84,1.67-1.02,3.78-.31,4.79,1.26,1.04,1.61.31,3.84-1.26,4.79Zm5.75,7.7c-1.9.08-3.48-1.67-3.5-3.5,0-.85-.09-1.69-.1-2.54-.02-1.96,1.62-3.42,3.5-3.5,1.9-.09,3.49,1.67,3.5,3.5,0,.85.09,1.69.1,2.54.02,1.96-1.62,3.42-3.5,3.5Zm1.97-20.69c-.79.51-1.8.56-2.7.35-.83-.19-1.67-.88-2.09-1.61-.51-.86-.49-1.69-.36-2.63-.03.22-.06.45-.09.67.08-.85-.02-1.7-.03-2.55-.02-1.96,1.62-3.42,3.5-3.5,1.9-.09,3.48,1.67,3.5,3.5,0,.49.04.98.06,1.47.02.75-.08,1.46-.18,2.2-.13.88-.9,1.63-1.61,2.09Zm10.57,15.83c-1.26,1.38-3.67,1.32-4.95,0-.88-.91-1.92-1.63-2.89-2.44-1.5-1.25-1.19-3.66,0-4.95.59-.64,1.62-1.02,2.48-1.02.98,0,1.74.42,2.48,1.02.97.81,2.01,1.53,2.89,2.44,1.36,1.41,1.3,3.53,0,4.95Zm.9-11.55c-.49.44-1.02.82-1.55,1.21-.13.11-.27.22-.39.34-1.4,1.36-3.54,1.3-4.95,0-.64-.59-1.03-1.62-1.03-2.47s.39-1.86,1.03-2.47c.56-.54,1.19-.98,1.82-1.44.04-.03.08-.07.12-.1.72-.64,1.52-.98,2.48-1.03.93-.04,1.81.41,2.48,1.03.64.59,1.02,1.62,1.02,2.47s-.38,1.9-1.02,2.47Z"/>
    </g>
  </g>
</svg>