<?xml version="1.0" encoding="UTF-8"?>
<svg id="Calque_2" data-name="Calque 2" xmlns="http://www.w3.org/2000/svg" xmlns:xlink="http://www.w3.org/1999/xlink" viewBox="0 0 335 235">
  <defs>
    <style>
      .cls-1 {
        fill: #fcf9f9;
      }

      .cls-1, .cls-2 {
        stroke-width: 0px;
      }

      .cls-2 {
        fill: #121f40;
        filter: url(#drop-shadow-1);
      }
    </style>
    <filter id="drop-shadow-1" filterUnits="userSpaceOnUse">
      <feOffset dx="0" dy="0"/>
      <feGaussianBlur result="blur" stdDeviation="4"/>
      <feFlood flood-color="#000" flood-opacity=".37"/>
      <feComposite in2="blur" operator="in"/>
      <feComposite in="SourceGraphic"/>
    </filter>
  </defs>
  <g id="logo">
    <rect class="cls-2" x="12.61" y="12.96" width="309.62" height="209.77"/>
    <g>
      <path class="cls-1" d="m274.21,144.63c-.62-8.32-4.76-15.71-8.85-22.79-4.36-7.61-8.58-15.68-11.37-24.14-1.1-3.68-3.68-11.88-.74-14.74,3.09-1.16,5.08,7.34,5.92,9.49,1.4,4.34,3.08,8.96,4.86,13.13,2.31,5.52,5.82,11.69,8.51,2.82,1.78-5.62,2.29-11.61,2.27-17.45,0-7.31.23-14.82-3.49-20.62-5.5-8.89-17.81-10.99-27.09-7.41-5.86,2.21-10.22,7.36-11.62,13.34-5.63,24.99,15.85,44.98,21.76,67.87.61,2.52,1.09,5.91.35,8.21-.49,1.71-1.93,1.85-3.02.51-1.69-1.86-2.96-5.84-3.86-8.57-1.44-4.54-3.17-8.97-5.29-13.22-3.17-5.95-11.03-25.07-10.91-6.41-.02,7.79-.07,15.56.06,23.35-.06,11.46,3.21,23.18,15.48,26.15,18.92,4.36,28.46-12.63,27.01-29.46v-.06Z"/>
      <path class="cls-1" d="m111.03,147.89c0-6.28,5.09-11.37,11.37-11.37h7.54c4.72,0,7.56-2.8,7.56-7.47v-24.28c0-14.32-3.95-20.85-20.96-20.85-2.91,0-32.04.78-32.04.78-.66,0-1.19-.53-1.19-1.19v-3.85c0-.66.53-1.19,1.19-1.19h29.85c1.17,0,2.31-.34,3.28-.99,3.6-2.39,12.38-8.86,14.79-16.65h-65.96c-3.57,0-6.46,2.89-6.46,6.46v101.09c0,3.57,2.89,6.46,6.46,6.46h10.39c3.57,0,6.46-2.89,6.46-6.46v-65.64c0-.23.19-.42.42-.42.26,0,2.75,0,6.03-.04.27,0,.48.21.48.48v2.01s0,48.56,0,48.56c0,14.47,7.21,21.01,24.22,21.01s23.03-6.38,23.03-20.85v-4.13c0-4.05-1.18-6.38-5.27-6.38h-7.87c-4.09,0-6.46,2.33-6.46,6.38v3.51c0,4.05.19,5.91-3.43,5.91s-3.43-1.87-3.43-5.91v-4.97Zm4.25-26.31h-2.09c-1.19,0-2.16-.97-2.16-2.16v-14.03c0-4.05.11-5.91,3.73-5.91,2.91,0,2.84,1.87,2.84,5.91v11.19c0,2.76.44,4.99-2.32,4.99Z"/>
      <path class="cls-1" d="m179.47,73.61v-11.39c0-.66-.53-1.19-1.19-1.19l-38.29.06c-.48,0-.91.29-1.1.74-2.1,5.05-5.05,9.76-9.11,13.48-1.09,1-2.24,1.91-3.44,2.75-.45.32-.32,1.02.22,1.13,10.04,2.07,17.6,10.96,17.6,21.62v71.19c0,1.56,1.27,2.83,2.83,2.83h15.13c1.56,0,2.83-1.27,2.83-2.83v-92.09c0-.66.53-1.19,1.19-1.19h8.21c2.83,0,5.13-2.3,5.13-5.13Z"/>
      <path class="cls-1" d="m235.82,61.33h-27.61c-4.09,0-6.46,2.34-6.46,6.38v82.38c0,4.2.57,7.38-3.38,7.32-3.52-.06-3.38-3.11-3.38-7.32v-82.38c0-4.05-2.36-6.38-6.46-6.38h-1.51c-.65,0-1.18.53-1.18,1.19v11.45c0,6.32-5.13,11.45-11.45,11.45h-1.52c-.66,0-1.19.53-1.19,1.19v63.49c0,16.97,6.38,24.76,26.69,24.76s26.69-7.79,26.69-24.76v-61.61c-.29-16.42,4.32-23.52,10.76-27.16Z"/>
    </g>
  </g>
</svg>