<?xml version="1.0" encoding="UTF-8"?>
<svg id="Calque_2" data-name="Calque 2" xmlns="http://www.w3.org/2000/svg" viewBox="0 0 627.73 333.14">
  <defs>
    <style>
      .cls-1 {
        fill: #121f40;
        stroke-width: 0px;
      }
    </style>
  </defs>
  <g id="charte_graphique" data-name="charte graphique">
    <g>
      <path class="cls-1" d="m625.92,244.85c-1.81-24.31-13.91-45.9-25.85-66.58-12.75-22.23-25.06-45.81-33.21-70.55-3.22-10.77-10.77-34.73-2.15-43.07,9.04-3.38,14.84,21.46,17.31,27.74,4.1,12.7,8.99,26.2,14.2,38.37,6.75,16.13,17.02,34.16,24.86,8.24,5.19-16.42,6.68-33.92,6.64-50.98.01-21.37.67-43.32-10.19-60.24-16.06-25.98-52.05-32.11-79.16-21.64-17.13,6.44-29.86,21.5-33.95,38.98-16.44,73.04,46.32,131.44,63.59,198.33,1.78,7.38,3.2,17.26,1.03,23.99-1.42,4.99-5.63,5.41-8.82,1.48-4.93-5.43-8.64-17.07-11.29-25.05-4.22-13.25-9.27-26.2-15.44-38.64-9.26-17.39-32.23-73.26-31.89-18.74-.07,22.75-.21,45.47.19,68.23-.19,33.5,9.37,67.72,45.24,76.42,55.29,12.74,83.16-36.9,78.92-86.09v-.17Z"/>
      <path class="cls-1" d="m149.09,254.36c0-18.34,14.87-33.21,33.21-33.21h22.04c13.8,0,22.09-8.19,22.09-21.83v-70.94c0-41.84-11.54-60.94-61.24-60.94-8.51,0-93.63,2.28-93.63,2.28-1.92,0-3.47-1.55-3.47-3.47v-11.24c0-1.92,1.55-3.47,3.47-3.47h87.23c3.41,0,6.74-1,9.58-2.88,10.53-6.98,36.18-25.89,43.22-48.65H18.87C8.45,0,0,8.45,0,18.87v295.41c0,10.42,8.45,18.87,18.87,18.87h30.37c10.42,0,18.87-8.45,18.87-18.87V122.47c0-.68.55-1.23,1.23-1.23.77,0,8.03-.02,17.62-.13.77,0,1.41.62,1.41,1.39v5.86s0,141.89,0,141.89c0,42.29,21.08,61.39,70.77,61.39s67.31-18.65,67.31-60.94v-12.07c0-11.82-3.43-18.65-15.4-18.65h-23.01c-11.96,0-18.87,6.82-18.87,18.65v10.25c0,11.82.55,17.28-10.04,17.28s-10.04-5.46-10.04-17.28v-14.54Zm12.42-76.87h-6.11c-3.48,0-6.31-2.82-6.31-6.31v-40.99c0-11.82.32-17.28,10.9-17.28,8.51,0,8.3,5.46,8.3,17.28v32.71c0,8.05,1.27,14.58-6.78,14.58Z"/>
      <path class="cls-1" d="m349.06,37.32V4.05c0-1.92-1.56-3.47-3.47-3.47l-111.89.19c-1.41,0-2.66.86-3.2,2.16-6.15,14.77-14.76,28.51-26.63,39.39-3.18,2.92-6.55,5.59-10.05,8.03-1.33.92-.93,2.98.65,3.31,29.35,6.06,51.42,32.03,51.42,63.18v208.03c0,4.57,3.7,8.27,8.27,8.27h44.21c4.57,0,8.27-3.7,8.27-8.27V55.78c0-1.92,1.55-3.47,3.47-3.47h23.98c8.28,0,14.99-6.71,14.99-14.99Z"/>
      <path class="cls-1" d="m513.73,1.42h-80.69c-11.96,0-18.87,6.83-18.87,18.66v240.71c0,12.29,1.66,21.58-9.89,21.39-10.3-.17-9.89-9.1-9.89-21.39V20.08c0-11.83-6.9-18.66-18.87-18.66h-4.42c-1.91.01-3.46,1.56-3.46,3.48v33.44c0,18.48-14.98,33.45-33.45,33.45h-4.43c-1.92,0-3.47,1.55-3.47,3.47v185.53c0,49.6,18.63,72.35,77.99,72.35s77.99-22.75,77.99-72.35V80.77c-.85-47.97,12.64-68.72,31.45-79.35Z"/>
    </g>
  </g>
</svg>