<?xml version="1.0" encoding="UTF-8"?>
<svg id="Calque_2" data-name="Calque 2" xmlns="http://www.w3.org/2000/svg" viewBox="0 0 354.16 189.41">
  <defs>
    <style>
      .cls-1 {
        fill: #fcf9f9;
        stroke-width: 0px;
      }
    </style>
  </defs>
  <g id="header">
    <g>
      <path class="cls-1" d="m353.13,138.84c-1.03-13.81-7.9-26.08-14.69-37.83-7.24-12.63-14.24-26.03-18.87-40.08-1.83-6.12-6.12-19.73-1.22-24.47,5.13-1.92,8.43,12.19,9.83,15.76,2.33,7.21,5.11,14.88,8.07,21.8,3.83,9.16,9.67,19.41,14.13,4.68,2.95-9.33,3.8-19.27,3.77-28.96,0-12.14.38-24.61-5.79-34.23-9.13-14.76-29.57-18.24-44.98-12.3-9.74,3.66-16.97,12.22-19.29,22.15-9.34,41.5,26.31,74.68,36.13,112.68,1.01,4.19,1.82,9.81.58,13.63-.81,2.83-3.2,3.07-5.01.84-2.8-3.09-4.91-9.7-6.42-14.23-2.4-7.53-5.26-14.89-8.77-21.95-5.26-9.88-18.31-41.63-18.12-10.65-.04,12.93-.12,25.83.11,38.76-.11,19.03,5.32,38.48,25.7,43.42,31.41,7.24,47.25-20.96,44.84-48.92v-.1Z"/>
      <path class="cls-1" d="m84.71,144.66c0-10.42,8.45-18.87,18.87-18.87h12.52c7.84,0,12.55-4.65,12.55-12.4v-40.31c0-23.77-6.56-34.62-34.79-34.62-4.83,0-53.2,1.29-53.2,1.29-1.09,0-1.97-.88-1.97-1.97v-6.39c0-1.09.88-1.97,1.97-1.97h49.56c1.94,0,3.83-.57,5.44-1.64,5.98-3.96,20.56-14.71,24.56-27.64H10.72C4.8.14,0,4.94,0,10.86v167.84c0,5.92,4.8,10.72,10.72,10.72h17.25c5.92,0,10.72-4.8,10.72-10.72v-108.97c0-.38.31-.7.7-.7.44,0,4.56-.01,10.01-.07.44,0,.8.35.8.79v3.33s0,80.62,0,80.62c0,24.03,11.98,34.88,40.21,34.88s38.24-10.59,38.24-34.62v-6.86c0-6.72-1.95-10.59-8.75-10.59h-13.07c-6.8,0-10.72,3.88-10.72,10.59v5.82c0,6.72.31,9.82-5.7,9.82s-5.7-3.1-5.7-9.82v-8.26Zm7.06-43.68h-3.47c-1.98,0-3.59-1.61-3.59-3.59v-23.29c0-6.72.18-9.82,6.19-9.82,4.83,0,4.72,3.1,4.72,9.82v18.59c0,4.58.72,8.29-3.85,8.29Z"/>
      <path class="cls-1" d="m198.32,20.9V2c0-1.09-.88-1.97-1.97-1.97l-63.57.11c-.8,0-1.51.49-1.82,1.23-3.49,8.39-8.39,16.2-15.13,22.38-1.81,1.66-3.72,3.18-5.71,4.56-.76.53-.53,1.69.37,1.88,16.67,3.44,29.21,18.2,29.21,35.89v118.2c0,2.59,2.1,4.7,4.7,4.7h25.12c2.59,0,4.7-2.1,4.7-4.7V31.39c0-1.09.88-1.97,1.97-1.97h13.63c4.7,0,8.51-3.81,8.51-8.51Z"/>
      <path class="cls-1" d="m291.88,0h-45.84c-6.8,0-10.72,3.88-10.72,10.6v136.76c0,6.98.94,12.26-5.62,12.15-5.85-.1-5.62-5.17-5.62-12.15V10.6c0-6.72-3.92-10.6-10.72-10.6h-2.51c-1.09,0-1.97.89-1.97,1.97v19c0,10.5-8.51,19.01-19.01,19.01h-2.52c-1.09,0-1.97.88-1.97,1.97v105.41c0,28.18,10.58,41.11,44.31,41.11s44.31-12.93,44.31-41.11V45.08c-.48-27.26,7.18-39.04,17.87-45.08Z"/>
    </g>
  </g>
</svg>