<?xml version="1.0" encoding="UTF-8"?>
<svg id="Calque_2" data-name="Calque 2" xmlns="http://www.w3.org/2000/svg" viewBox="0 0 232.95 149.8">
  <defs>
    <style>
      .cls-1 {
        fill: #121f40;
        stroke-width: 0px;
      }
    </style>
  </defs>
  <g id="Pictogrammes">
    <g>
      <g>
        <path class="cls-1" d="m83.56,54.93c-3.81-7.43-8.22-12.51-14.28-16.48-1.02-.67-2.41-.39-3.12.62l-25.33,36.29c-.34.49-.45,1.12-.29,1.74.35,1.35.17,2.7-.54,3.9-1.08,1.83-2.75,2.36-3.97,2.48-.59.06-1.12.36-1.44.83l-24.76,35.46c-.35.51-.49,1.15-.38,1.76.11.61.46,1.13.96,1.48,7.93,5.35,16.88,8.13,25.89,8.13,2.87,0,5.74-.28,8.59-.85,7.54-1.51,14.57-4.33,20.32-8.15,7.56-5.02,11.3-12.66,13.72-18.74.84-2.11,1.78-4.29,2.68-6.4,2.25-5.24,4.58-10.65,5.91-16.1,2.03-8.3.73-16.78-3.97-25.94Zm-14.75,44.98c.02,2.51-2.03,4.47-4.76,4.56-2.25.07-3.38-1.17-4.82-2.75-.48-.53-.98-1.07-1.54-1.59-.09-.08-.64-.55-1.33-1.13-.93-.79-2.13-1.81-2.77-2.36-.7-.61-2.26-2.21-1.7-3.94.4-1.24,1.22-1.38,3.19-1.58l.57-.06c.08,0,.15,0,.23,0,3.8,0,9.02,2.3,11.51,5.1,1.11,1.25,1.59,2.47,1.43,3.63v.07s0,.07,0,.07Zm-14.05-25.88c-.14-.94.18-2.24,1.56-2.82.3-.12.62-.23,1.04-.35.39-.14.81-.3,1.26-.46,2.87-1.06,7.16-2.64,10.4-2.64,1.17,0,2.2.21,2.97.71.97.64,1.49,1.74,1.59,3.36.09,1.52-.28,2.65-1.13,3.43-2.54,2.36-8.93,1.49-13.59.85-.88-.12-1.72-.23-2.46-.32h-.01c-1.02-.1-1.51-.98-1.63-1.76Zm-15.83,42.41c-1.8-.26-4.41-3.16-5.08-4.36-.59-1.07-2.06-8.26,0-11.32.4-.59,1.1-1.06,1.79-1.18.12-.02.24-.03.36-.03.35,0,.66.1.94.3,1.19.86,1.9,1.87,2.61,3.13.35.62.73,1.21,1.1,1.78.52.8,1.01,1.55,1.39,2.35,1.1,2.3,1.58,4.2,1.49,5.81h0c-.07,1.15-.52,2.09-1.31,2.74-.85.7-2.03.98-3.3.79Z"/>
        <path class="cls-1" d="m86.36,29.6h0c-4.14-3.74-5.34-4.79-6.77-5.95-.44-.35-1.01-.51-1.57-.43-.56.08-1.06.39-1.38.85l-4.81,6.89c-.3.44-.42.99-.32,1.51.1.53.41.98.87,1.27.15.1.31.2.46.3,6.22,4.15,10.89,9.35,14.7,16.36,7.38,13.59,8.29,26.58,2.78,39.7-1.02,2.43-1.99,4.96-2.93,7.4-4.05,10.53-8.24,21.41-17.6,28.27-18.57,13.6-43.74,14.31-62.61,1.77-1.06-.7-2.46-.45-3.18.59l-3.58,5.12c-.36.52-.5,1.18-.37,1.8.13.62.51,1.17,1.05,1.5,1.68,1.03,3.35,1.81,5.29,2.71.81.38,1.67.78,2.59,1.23,7.79,3.83,16.23,5.65,24.78,5.65,21.38,0,43.43-11.41,57.45-31.51,19.65-28.14,17.56-64.7-4.85-85.03Z"/>
      </g>
      <path class="cls-1" d="m231.89,73.63c-2.4-12.87-9.28-24.84-18.76-33.8-9.84-9.3-22.48-15.64-35.81-17.98-1.23-.22-2.46-.39-3.7-.55-.31-3.13-2.32-5.66-4.4-7.9-3.77-4.06-7.6-8.07-11.4-12.11-1.25-1.32-3.34-1.62-4.96-.94-1.52.64-2.98,2.38-2.79,4.15.2,1.87,0,3.76.19,5.64.26,2.57.7,5.12,1.49,7.58.42,1.3.9,2.57,1.46,3.78-10.56,1.59-20.79,5.44-29.6,11.52-11.07,7.65-19.68,18.28-24.48,30.88-4.74,12.46-5.1,26.65-1.13,39.36,3.96,12.66,11.94,23.71,22.4,31.79,11,8.5,24.31,13.4,38.13,14.51,13.92,1.12,28.16-1.91,40.4-8.62,11.44-6.27,21.23-15.95,27.19-27.6,6.27-12.26,8.28-26.2,5.75-39.73Z"/>
    </g>
  </g>
</svg>