<?xml version="1.0" encoding="UTF-8"?>
<svg id="Calque_2" data-name="Calque 2" xmlns="http://www.w3.org/2000/svg" viewBox="0 0 69.58 99.78">
  <defs>
    <style>
      .cls-1 {
        fill: #121f40;
        stroke-width: 0px;
      }
    </style>
  </defs>
  <g id="Pictogrammes">
    <path class="cls-1" d="m64.64,52.69c-3.33-4.95-4.76-10.87-4.46-16.83.02-.34.03-.69.03-1.04,0-10.94-8.65-20.07-20.17-22.23-.37-.07-.51-.51-.25-.79.87-.93,1.42-2.18,2.05-3.34,1.35-2.51,1.51-6.09,1.5-7.95,0-.46-.57-.68-.89-.34-2.13,2.26-4.26,4.53-6.4,6.79-.2.22-.41.43-.61.66-.5-1.21-1.41-2.28-2.4-3.21-1.51-1.42-4.84-3.19-6.69-4.12-.44-.22-.9.24-.7.68,1.28,2.75,2.56,5.51,3.84,8.26.26.57.85,1.51,1.3,2.21.27.41.01.95-.47,1.02-11.9,1.89-20.94,11.18-20.94,22.37,0,.35,0,.69.03,1.04.3,5.96-1.13,11.87-4.46,16.83-3.14,4.67-4.95,10.14-4.95,15.98,0,17.18,15.58,31.11,34.79,31.11s34.79-13.93,34.79-31.11c0-5.85-1.81-11.31-4.95-15.98Z"/>
  </g>
</svg>