<?xml version="1.0" encoding="UTF-8"?>
<svg id="Calque_2" data-name="Calque 2" xmlns="http://www.w3.org/2000/svg" viewBox="0 0 106.49 58.7">
  <defs>
    <style>
      .cls-1 {
        stroke: #121f40;
        stroke-miterlimit: 10;
        stroke-width: .21px;
      }

      .cls-1, .cls-2 {
        fill: #121f40;
      }

      .cls-2 {
        stroke-width: 0px;
      }
    </style>
  </defs>
  <g id="Pictogrammes">
    <g>
      <ellipse class="cls-1" cx="14.04" cy="50.81" rx="8.3" ry="6.9"/>
      <ellipse class="cls-1" cx="77.73" cy="24.45" rx="8.3" ry="6.9" transform="translate(-3.7 27.38) rotate(-19.52)"/>
      <ellipse class="cls-1" cx="42.36" cy="13.25" rx="6.9" ry="8.3" transform="translate(7.91 41.24) rotate(-56.47)"/>
      <path class="cls-2" d="m105.87,43.27c-.07-.09-.15-.17-.23-.23-.28-.27-.69-.39-1.12-.13-5.25,3.2-11.07,5.79-17.25,6.4-6.07.6-11.93-.87-17.09-4.09-4.11-2.57-8.09-5.61-13.18-5.51-6.04.12-11.84,2.68-17.7-.01-4.38-2.01-7.74-5.64-11.98-7.89-.93-.5-1.91-.93-2.91-1.26-.96-.32-2.35-.32-3.16-.95-1.16-.9-.71-2.74.18-3.65,1.43-1.47,3.77-.53,5.38.13,2.25.93,4.24,2.39,6.17,3.85,3.98,3.03,8.01,6.16,13.27,6.12,3.5-.02,6.89-1.14,10.37-1.33,3.27-.17,6.49.48,9.42,1.95,2.83,1.42,5.35,3.4,8.12,4.95,2.7,1.5,5.52,2.46,8.6,2.7,1.04.08,1.24-1.34.5-1.84-5.24-3.49-10.31-7.18-16.05-9.86-2.61-1.22-5.31-2.05-8.21-2.12-3.14-.08-6.26.57-9.41.44-3.06-.13-5.63-1.31-7.9-3.33-1.99-1.77-3.72-3.81-5.75-5.54-4.2-3.58-9.17-6.24-14.47-7.77-3.19-.92-6.47-1.04-9.69-1.76-1.77-.4-3.3-1.18-4.73-2.16.25-1.23.74-2.45,1.03-3.59.52-2.07.65-5.18-1.57-6.36-1.89-1.01-4.21-.09-5.42,1.53C-.06,3.47-.26,5.57.31,7.35c.31.94.77,1.81,1.35,2.6-.08,7.66,3.73,14.94,8.7,20.6,5.91,6.72,13.75,11.52,21.67,15.53,16.19,8.19,34.7,15.11,53.1,11.78,4.74-.86,9.37-2.46,13.51-4.95,2.09-1.26,4.41-2.68,6.15-4.42,1.43-1.43,2.4-3.38,1.08-5.22ZM3.9,7.89c-.07-.06-.14-.12-.21-.19.06-.04.11-.09.16-.14.02.11.03.22.05.33Zm.97-4.7s0,.02.02.05c0,0,0,.01,0,.02-.02-.03-.04-.05-.06-.07.02,0,.03,0,.04,0Z"/>
    </g>
  </g>
</svg>