<?xml version="1.0" encoding="UTF-8"?>
<svg id="Calque_2" data-name="Calque 2" xmlns="http://www.w3.org/2000/svg" viewBox="0 0 47.57 47.57">
  <defs>
    <style>
      .cls-1 {
        fill: #fcf9f9;
        stroke-width: 0px;
      }
    </style>
  </defs>
  <g id="Pictogrammes">
    <g id="X">
      <g>
        <path class="cls-1" d="m16.7,11.48c-1.02.01-2.04,0-3.05,0-.1,0-.2.01-.35.02.1.16.18.28.26.4,3.17,4.54,6.34,9.07,9.52,13.61,2.41,3.45,4.83,6.91,7.25,10.36.09.13.27.29.41.29,1.15.02,2.3.01,3.53.01-.09-.15-.15-.23-.21-.32-5.62-8.03-11.23-16.07-16.85-24.11-.14-.19-.27-.28-.51-.28Z"/>
        <path class="cls-1" d="m36.94,0H10.63C4.76,0,0,4.76,0,10.63v26.31c0,5.87,4.76,10.63,10.63,10.63h26.31c5.87,0,10.63-4.76,10.63-10.63V10.63c0-5.87-4.76-10.63-10.63-10.63Zm.26,37.93c-2.49,0-4.97,0-7.46,0-.27,0-.42-.08-.58-.3-2.34-3.42-4.69-6.84-7.04-10.26-.09-.13-.18-.26-.29-.41-.79.91-1.55,1.8-2.32,2.69-2.31,2.69-4.62,5.37-6.93,8.05-.09.11-.25.22-.38.22-.71.02-1.43.01-2.25.01.69-.8,1.31-1.53,1.94-2.26,2.85-3.32,5.71-6.64,8.57-9.94.23-.26.26-.43.05-.73-3.42-4.96-6.83-9.93-10.24-14.89-.09-.13-.17-.26-.29-.44.18-.01.3-.02.43-.02,2.46,0,4.92,0,7.38,0,.3,0,.47.09.64.34,2.21,3.23,4.42,6.45,6.64,9.67.08.12.17.23.27.39.36-.42.71-.82,1.05-1.21,2.55-2.97,5.11-5.93,7.65-8.9.17-.2.34-.29.61-.28.65.02,1.31,0,2.08,0-3.48,4.04-6.87,7.99-10.31,11.98,3.72,5.41,7.43,10.82,11.21,16.31h-.42Z"/>
      </g>
    </g>
  </g>
</svg>