<?xml version="1.0" encoding="UTF-8"?>
<svg id="Calque_2" data-name="Calque 2" xmlns="http://www.w3.org/2000/svg" viewBox="0 0 47.57 47.57">
  <defs>
    <style>
      .cls-1 {
        fill: #fcf9f9;
        stroke-width: 0px;
      }
    </style>
  </defs>
  <g id="Pictogrammes">
    <g id="ytb">
      <g>
        <polygon class="cls-1" points="22.41 20.78 22.41 27.06 27.52 23.92 22.41 20.78"/>
        <path class="cls-1" d="m36.94,0H10.63C4.76,0,0,4.76,0,10.63v26.31c0,5.87,4.76,10.63,10.63,10.63h26.31c5.87,0,10.63-4.76,10.63-10.63V10.63c0-5.87-4.76-10.63-10.63-10.63Zm-13.04,32.11c-11.79,0-12.03-.95-12.03-9.26s6.6-7.36,13.74-7.35c7.15,0,10.08,1.22,10.08,7.66,0,7.7,0,8.95-11.79,8.95Z"/>
      </g>
    </g>
  </g>
</svg>